<svg xmlns="http://www.w3.org/2000/svg" xmlns:xlink="http://www.w3.org/1999/xlink" viewBox="0 0 171.7 233.48">
<defs>
<style>.cls-1{fill:#fafafa;}.cls-2{fill:#c8c8c8;}.cls-3{fill:url(#linear-gradient);}
#shadow {filter: drop-shadow(rgb(0, 0, 0) 3px 3px 3px);}
</style>

<linearGradient id="linear-gradient" x1="30.67" y1="92.4" x2="141.45" y2="203.95" gradientUnits="userSpaceOnUse">
<stop offset="0" stop-color="#934510"/>
<stop offset="0.5" stop-color="#d3661c"/>
<stop offset="1" stop-color="#fb7a23"/>
</linearGradient>
</defs>

<title>ITEM_OLD_FLUX_RUNNER</title>

<g id="icon_item" data-name="icon item">
<path class="cls-1" d="M65.7,258.29a9.93,9.93,0,0,1-9.92-9.92V34.73a9.93,9.93,0,0,1,9.92-9.92H168.1V71.43a12.78,12.78,0,0,0,12.76,12.76h46.62V248.37a9.93,9.93,0,0,1-9.92,9.92Z" transform="translate(-55.78 -24.81)"/>
<path class="cls-2" d="M180.86,77.1h41.52a2.84,2.84,0,0,0,2-4.84L180,27.9a2.84,2.84,0,0,0-4.84,2V71.43A5.68,5.68,0,0,0,180.86,77.1Z" transform="translate(-55.78 -24.81)"/>
<path d="M80.89,58.11a3.41,3.41,0,1,1,0-6.81H143a3.41,3.41,0,0,1,0,6.81Z" transform="translate(-55.78 -24.81)"/>
<path d="M80.89,93.37a3.41,3.41,0,1,1,0-6.81H143a3.41,3.41,0,0,1,0,6.81Z" transform="translate(-55.78 -24.81)"/>
</g>

<g id="old_flux_runner" data-name="old flux runner">
<rect  id="shadow" class="cls-3" x="22.18" y="84.29" width="127.56" height="127.56" rx="28.35" ry="28.35"/>
<path  id="shadow" class="cls-1" d="M174.16,162l-1.39,2.42a2.09,2.09,0,0,1-2.55.91,18.83,18.83,0,0,1-5.41-3.14,2.1,2.1,0,0,1-.48-2.65l1.39-2.41a14.5,14.5,0,0,1-2.69-4.63h-2.78a2.08,2.08,0,0,1-2.06-1.74,19.06,19.06,0,0,1,0-6.26,2.1,2.1,0,0,1,2.06-1.75H163a14.5,14.5,0,0,1,2.69-4.63l-1.39-2.41a2.08,2.08,0,0,1,.48-2.65,19.1,19.1,0,0,1,5.41-3.14,2.09,2.09,0,0,1,2.55.91l1.39,2.42a15,15,0,0,1,5.34,0l1.39-2.42a2.09,2.09,0,0,1,2.55-.91,18.83,18.83,0,0,1,5.41,3.14,2.1,2.1,0,0,1,.48,2.65l-1.39,2.41a14.5,14.5,0,0,1,2.69,4.63h2.78a2.08,2.08,0,0,1,2.06,1.74,19.06,19.06,0,0,1,0,6.26,2.1,2.1,0,0,1-2.06,1.75h-2.78a14.5,14.5,0,0,1-2.69,4.63l1.39,2.41a2.08,2.08,0,0,1-.48,2.65,19.1,19.1,0,0,1-5.41,3.14,2.09,2.09,0,0,1-2.55-.91L179.5,162A15,15,0,0,1,174.16,162Zm-1.78-9.92c6.5,5,13.91-2.41,8.91-8.91C174.8,138.19,167.39,145.61,172.38,152.11Zm-19.45,26,5.68,2.84a4.05,4.05,0,0,1,1.78,4.91c-1.51,4.08-4.46,7.83-7.19,11.1a4,4,0,0,1-5.12.89L143.17,195a29.1,29.1,0,0,1-9.26,5.35V206a4,4,0,0,1-3.33,4,37.93,37.93,0,0,1-12.8,0,4.06,4.06,0,0,1-3.38-4v-5.67a29.48,29.48,0,0,1-9.26-5.35l-4.91,2.82a4,4,0,0,1-5.12-.9c-2.73-3.27-5.62-7-7.12-11.08a4.08,4.08,0,0,1,1.77-4.91l5.62-2.84a29.16,29.16,0,0,1,0-10.7l-5.62-2.85A4,4,0,0,1,88,159.64c1.5-4.09,4.39-7.83,7.12-11.11a4,4,0,0,1,5.12-.89l4.91,2.83a29.1,29.1,0,0,1,9.26-5.35v-5.68a4,4,0,0,1,3.31-4,38.57,38.57,0,0,1,12.82,0,4.06,4.06,0,0,1,3.38,4v5.67a29.1,29.1,0,0,1,9.26,5.35l4.91-2.84a4,4,0,0,1,5.12.9c2.73,3.27,5.6,7,7.1,11.1a4,4,0,0,1-1.69,4.91l-5.68,2.84A29.66,29.66,0,0,1,152.93,178.08Zm-19.85,3.56c10-13-4.84-27.83-17.84-17.84C105.25,176.8,120.09,191.63,133.08,181.64Zm41.08,30.83-1.39,2.42a2.09,2.09,0,0,1-2.55.91,18.83,18.83,0,0,1-5.41-3.14,2.1,2.1,0,0,1-.48-2.65l1.39-2.41A14.5,14.5,0,0,1,163,203h-2.78a2.08,2.08,0,0,1-2.06-1.74,19.06,19.06,0,0,1,0-6.26,2.1,2.1,0,0,1,2.06-1.75H163a14.5,14.5,0,0,1,2.69-4.63l-1.39-2.41a2.08,2.08,0,0,1,.48-2.65,19.1,19.1,0,0,1,5.41-3.14,2.09,2.09,0,0,1,2.55.91l1.39,2.42a15,15,0,0,1,5.34,0l1.39-2.42a2.09,2.09,0,0,1,2.55-.91,18.83,18.83,0,0,1,5.41,3.14,2.1,2.1,0,0,1,.48,2.65l-1.39,2.41a14.5,14.5,0,0,1,2.69,4.63h2.78a2.08,2.08,0,0,1,2.06,1.74,19.06,19.06,0,0,1,0,6.26,2.1,2.1,0,0,1-2.06,1.75h-2.78a14.5,14.5,0,0,1-2.69,4.63l1.39,2.41a2.08,2.08,0,0,1-.48,2.65,19.1,19.1,0,0,1-5.41,3.14,2.09,2.09,0,0,1-2.55-.91l-1.39-2.42A15,15,0,0,1,174.16,212.47Zm-1.78-9.94c6.5,5,13.91-2.41,8.91-8.91C174.8,188.63,167.39,196,172.38,202.53Z" transform="translate(-55.78 -24.81)"/>
</g>
</svg>