<svg xmlns="http://www.w3.org/2000/svg" xmlns:xlink="http://www.w3.org/1999/xlink" viewBox="0 0 283.46 283.46">
<defs>

<style>.cls-1{fill:url(#linear-gradient);}.cls-2{fill:#fafafa;}
#shadow {filter: drop-shadow(rgb(0, 0, 0) 5px 5px 5px);}
</style>

<linearGradient id="linear-gradient" x1="0.5" y1="-0.5" x2="283.5" y2="284.5" gradientUnits="userSpaceOnUse">
<stop offset="0" stop-color="#934510"/>
<stop offset="0.5" stop-color="#d3661c"/>
<stop offset="1" stop-color="#fb7a23"/>
</linearGradient>

</defs>

<title>OLD_FLUX_RUNNER</title>

<g id="background_02" data-name="background 02">
<rect class="cls-1" width="283.46" height="283.46"/>
</g>

<g id="old_flux_runner" data-name="old flux runner">
<path id="shadow" class="cls-2" d="M213.78,117.63,210.71,123a4.64,4.64,0,0,1-5.66,2,41.42,41.42,0,0,1-12-7,4.65,4.65,0,0,1-1-5.89l3.07-5.36a32.57,32.57,0,0,1-6-10.27h-6.19a4.63,4.63,0,0,1-4.57-3.87,42.16,42.16,0,0,1,0-13.91,4.65,4.65,0,0,1,4.57-3.9h6.19a32.46,32.46,0,0,1,6-10.27L192,59.2a4.6,4.6,0,0,1,1-5.88,41.72,41.72,0,0,1,12-7,4.63,4.63,0,0,1,5.66,2l3.07,5.36a33.45,33.45,0,0,1,11.89,0l3.08-5.36a4.63,4.63,0,0,1,5.66-2,41.46,41.46,0,0,1,12,7,4.66,4.66,0,0,1,1.05,5.88l-3.08,5.37a32.27,32.27,0,0,1,6,10.27h6.19a4.64,4.64,0,0,1,4.58,3.86,42.5,42.5,0,0,1,0,13.92,4.67,4.67,0,0,1-4.58,3.9h-6.19a32.38,32.38,0,0,1-6,10.27l3.08,5.36a4.62,4.62,0,0,1-1.05,5.89,42.09,42.09,0,0,1-12,7,4.64,4.64,0,0,1-5.66-2l-3.08-5.36A33.45,33.45,0,0,1,213.78,117.63Zm-3.93-22c14.43,11.1,30.9-5.36,19.8-19.8C215.21,64.64,198.75,81.14,209.85,95.58Zm-43.24,57.71,12.64,6.3a9,9,0,0,1,3.93,10.91c-3.33,9.08-9.9,17.4-16,24.68a9,9,0,0,1-11.36,2l-10.92-6.3a64.48,64.48,0,0,1-20.58,11.88v12.6A9,9,0,0,1,117,224.2a84.19,84.19,0,0,1-28.46,0,9,9,0,0,1-7.5-8.85v-12.6a65.18,65.18,0,0,1-20.59-11.88L49.5,197.13a9,9,0,0,1-11.37-2c-6.07-7.27-12.48-15.6-15.82-24.64a9,9,0,0,1,3.94-10.91l12.48-6.3a65,65,0,0,1,0-23.77l-12.48-6.34a8.94,8.94,0,0,1-3.94-10.88c3.34-9.07,9.75-17.4,15.82-24.67a9,9,0,0,1,11.37-2l10.91,6.3A64.45,64.45,0,0,1,81,80.05V67.42a8.93,8.93,0,0,1,7.35-8.82,85.46,85.46,0,0,1,28.5,0,9,9,0,0,1,7.5,8.85V80A65.24,65.24,0,0,1,144.93,91.9l10.92-6.3a9,9,0,0,1,11.36,2c6.07,7.28,12.45,15.6,15.79,24.68a9,9,0,0,1-3.75,10.91l-12.64,6.3A65.26,65.26,0,0,1,166.61,153.29Zm-44.1,7.91c22.2-28.87-10.76-61.83-39.64-39.63C60.67,150.44,93.63,183.4,122.51,161.2Zm91.27,68.52-3.07,5.36a4.63,4.63,0,0,1-5.66,2,41.4,41.4,0,0,1-12-7,4.65,4.65,0,0,1-1-5.89l3.07-5.36a32.5,32.5,0,0,1-6-10.28h-6.19a4.62,4.62,0,0,1-4.57-3.86,42.16,42.16,0,0,1,0-13.91,4.65,4.65,0,0,1,4.57-3.9h6.19a32.5,32.5,0,0,1,6-10.28L192,171.29a4.61,4.61,0,0,1,1-5.89,41.92,41.92,0,0,1,12-7,4.64,4.64,0,0,1,5.66,2l3.07,5.37a33,33,0,0,1,11.89,0l3.08-5.37a4.63,4.63,0,0,1,5.66-2,41.66,41.66,0,0,1,12,7,4.67,4.67,0,0,1,1.05,5.89l-3.08,5.36a32.32,32.32,0,0,1,6,10.28h6.19a4.64,4.64,0,0,1,4.58,3.86,42.44,42.44,0,0,1,0,13.91,4.67,4.67,0,0,1-4.58,3.9h-6.19a32.32,32.32,0,0,1-6,10.28l3.08,5.36a4.63,4.63,0,0,1-1.05,5.89,42.06,42.06,0,0,1-12,7,4.62,4.62,0,0,1-5.66-2l-3.08-5.36A33.45,33.45,0,0,1,213.78,229.72Zm-3.93-22.09c14.43,11.1,30.9-5.36,19.8-19.8C215.21,176.73,198.75,193.19,209.85,207.63Z" transform="translate(0)"/>
</g>
</svg>